<?xml version="1.0" encoding="UTF-8" standalone="no"?>
<!-- Created with Inkscape (http://www.inkscape.org/) -->

<svg
   xmlns:dc="http://purl.org/dc/elements/1.1/"
   xmlns:cc="http://creativecommons.org/ns#"
   xmlns:rdf="http://www.w3.org/1999/02/22-rdf-syntax-ns#"
   xmlns:svg="http://www.w3.org/2000/svg"
   xmlns="http://www.w3.org/2000/svg"
   xmlns:sodipodi="http://sodipodi.sourceforge.net/DTD/sodipodi-0.dtd"
   xmlns:inkscape="http://www.inkscape.org/namespaces/inkscape"
   version="1.0"
   width="660"
   height="660"
   id="svg2"
   sodipodi:version="0.32"
   inkscape:version="0.46+devel"
   sodipodi:docname="logo.svg"
   inkscape:output_extension="org.inkscape.output.svg.inkscape"
   inkscape:export-filename="/home/fale/Documents/scuola/biologia/images/png/logo.png"
   inkscape:export-xdpi="17.450001"
   inkscape:export-ydpi="17.450001">
  <metadata
     id="metadata2045">
    <rdf:RDF>
      <cc:Work
         rdf:about="">
        <dc:format>image/svg+xml</dc:format>
        <dc:type
           rdf:resource="http://purl.org/dc/dcmitype/StillImage" />
        <dc:title></dc:title>
      </cc:Work>
    </rdf:RDF>
  </metadata>
  <sodipodi:namedview
     inkscape:window-height="670"
     inkscape:window-width="950"
     inkscape:pageshadow="2"
     inkscape:pageopacity="0.0"
     guidetolerance="10.0"
     gridtolerance="10.0"
     objecttolerance="10.0"
     borderopacity="1.0"
     bordercolor="#666666"
     pagecolor="#ffffff"
     id="base"
     width="660px"
     height="660px"
     showguides="true"
     inkscape:guide-bbox="true"
     inkscape:zoom="0.5"
     inkscape:cx="457.49809"
     inkscape:cy="326.68333"
     inkscape:window-x="0"
     inkscape:window-y="0"
     inkscape:current-layer="svg2"
     showgrid="false" />
  <defs
     id="defs4">
    <inkscape:perspective
       sodipodi:type="inkscape:persp3d"
       inkscape:vp_x="0 : 330 : 1"
       inkscape:vp_y="0 : 1000 : 0"
       inkscape:vp_z="660 : 330 : 1"
       inkscape:persp3d-origin="330 : 220 : 1"
       id="perspective45" />
  </defs>
  <path
     d="M 330.00684,31.644609 C 165.30012,31.644609 31.616006,165.32872 31.616006,330.03544 C 31.616006,494.74216 165.30013,628.39471 330.00684,628.39467 C 494.71355,628.39467 628.39769,494.74215 628.39767,330.03544 C 628.39767,165.32873 494.71357,31.644609 330.00684,31.644609 z M 330.00684,116.64634 C 447.78603,116.64634 543.36434,212.25625 543.36434,330.03544 C 543.36433,447.81464 447.78603,543.39294 330.00684,543.39294 C 212.22765,543.39292 116.64934,447.81464 116.64934,330.03544 C 116.64933,212.25625 212.22764,116.64634 330.00684,116.64634 z "
     style="fill:none;fill-opacity:1;stroke:none;stroke-width:3.41480303;stroke-linecap:round;stroke-linejoin:round;stroke-miterlimit:4;stroke-dasharray:none;stroke-opacity:1"
     id="path7212" />
  <path
     d="M 326.03822,21.917867 C 224.6713,23.203287 135.05801,73.529667 79.81947,150.23037 L 136.44447,182.91787 C 180.86758,124.57046 251.06803,86.886617 330.00697,86.886617 C 408.94224,86.886607 479.11478,124.59743 523.53822,182.94912 L 580.19447,150.23037 C 524.23679,72.531017 433.0015,21.917857 330.00697,21.917867 C 328.67818,21.917867 327.36305,21.901067 326.03822,21.917867 z "
     style="fill:#990000;fill-opacity:1;stroke:none;stroke-width:3.74635673;stroke-linecap:round;stroke-linejoin:round;stroke-miterlimit:4;stroke-dasharray:none;stroke-opacity:1"
     id="path7202" />
  <path
     d="M 49.13197,203.23037 C 31.62791,241.90928 21.88197,284.81903 21.88197,330.01162 C 21.88197,489.76345 143.65465,621.21922 299.38197,636.60537 L 299.38197,571.23037 C 179.6238,556.1456 86.88197,453.83917 86.88197,330.01162 C 86.88197,296.6641 93.6212,264.89115 105.78822,235.94912 L 49.13197,203.23037 z "
     style="fill:#006699;fill-opacity:1;stroke:none;stroke-width:3.74635673;stroke-linecap:round;stroke-linejoin:round;stroke-miterlimit:4;stroke-dasharray:none;stroke-opacity:1"
     id="path7200" />
  <path
     d="M 610.88197,203.23037 L 554.22572,235.94912 C 566.39343,264.89474 573.13197,296.69435 573.13197,330.04287 C 573.13198,453.87042 480.39014,556.14972 360.63197,571.23037 L 360.63197,636.60537 C 516.35929,621.22257 638.13196,489.7947 638.13197,330.04287 C 638.13197,284.84925 628.38556,241.9106 610.88197,203.23037 z "
     style="fill:#006699;fill-opacity:1;stroke:none;stroke-width:3.74635673;stroke-linecap:round;stroke-linejoin:round;stroke-miterlimit:4;stroke-dasharray:none;stroke-opacity:1"
     id="path7174" />
  <path
     d="M -243.27269,61.502544 C -391.48015,377.95293 -254.9257,755.09222 61.524779,903.29982 C 377.97529,1051.5073 755.05403,914.92468 903.2615,598.47433 C 1051.469,282.02393 914.97528,-95.08703 598.52474,-243.29451 C 282.07419,-391.50211 -95.06521,-254.9479 -243.27269,61.502544 z M -79.9591,137.98938 C 26.021735,-88.29933 295.72066,-185.90119 522.00951,-79.9203 C 748.29832,26.060605 845.92873,295.69876 739.9479,521.98748 C 633.96703,748.27615 364.32884,845.90649 138.04002,739.92561 C -88.24881,633.94472 -185.93995,364.27811 -79.9591,137.98938 z "
     style="fill:none;fill-opacity:1;stroke:none;stroke-width:3.4148047;stroke-linecap:round;stroke-linejoin:round;stroke-miterlimit:4;stroke-dasharray:none;stroke-opacity:1"
     id="path7217" />
  <path
     d="M 583.73721,330.0276 C 583.73721,470.15655 470.14024,583.75352 330.0113,583.75352 C 189.88235,583.75352 76.285385,470.15655 76.285385,330.0276 C 76.285385,189.89866 189.88235,76.301693 330.0113,76.301693 C 470.14024,76.301693 583.73721,189.89866 583.73721,330.0276 z "
     style="fill:none;fill-opacity:1;stroke:none;stroke-width:3.23019791;stroke-linecap:round;stroke-linejoin:round;stroke-miterlimit:4;stroke-dasharray:none;stroke-opacity:1"
     id="path7233" />
  <g
     id="g13026"
     transform="matrix(1.187753,0,0,1,-63.15122,0)">
    <path
       sodipodi:nodetypes="cscccccc"
       id="path6752"
       d="M 300.02746,487.09291 C 295.61546,487.31874 292.12106,490.5891 291.97253,494.63141 C 291.824,498.67373 295.07043,502.15159 299.45589,502.64823 L 369.72156,511.33271 C 362.96045,506.17085 360.86991,501.00899 372.00787,495.84714 L 301.74219,487.16266 C 301.17462,487.08674 300.60015,487.06337 300.02746,487.09291 L 300.02746,487.09291 z "
       style="color:#000000;fill:#339966;fill-opacity:1;fill-rule:nonzero;stroke:none;stroke-width:3.74635673;stroke-linecap:round;stroke-linejoin:round;marker:none;marker-start:none;marker-mid:none;marker-end:none;stroke-miterlimit:4;stroke-dasharray:none;stroke-dashoffset:0;stroke-opacity:1;visibility:visible;display:inline;overflow:visible" />
    <path
       sodipodi:nodetypes="ccccc"
       id="path4093"
       d="M 341.99022,208.42525 C 338.57205,198.16966 332.15271,189.47775 333.86803,175.46322 C 304.939,139.58859 272.48366,148.59242 244.75474,139.65846 C 249.77564,141.52876 245.43813,162.94005 233.85924,159.10291 C 265.18977,170.95423 305.76071,162.76521 341.99022,208.42525 z "
       style="color:#000000;fill:#006699;fill-opacity:1;fill-rule:evenodd;stroke:#006699;stroke-width:1.1665765px;stroke-linecap:butt;stroke-linejoin:miter;marker:none;marker-start:none;marker-mid:none;marker-end:none;stroke-miterlimit:4;stroke-dasharray:none;stroke-dashoffset:0;stroke-opacity:1;visibility:visible;display:inline;overflow:visible" />
    <path
       sodipodi:nodetypes="ccccc"
       id="path4091"
       d="M 307.48678,537.14253 C 324.55783,552.13206 342.62889,547.23486 359.69994,551.44172 C 347.55739,541.24 324.70944,534.71274 336.53208,516.2853 C 319.86748,524.62281 303.20288,512.07601 286.53828,501.7763 C 298.53488,505.5595 307.49484,525.14989 307.48678,537.14253 z "
       style="color:#000000;fill:#006699;fill-opacity:1;fill-rule:evenodd;stroke:#006699;stroke-width:1.1665765px;stroke-linecap:butt;stroke-linejoin:miter;marker:none;marker-start:none;marker-mid:none;marker-end:none;stroke-miterlimit:4;stroke-dasharray:none;stroke-dashoffset:0;stroke-opacity:1;visibility:visible;display:inline;overflow:visible" />
    <path
       sodipodi:nodetypes="ccsscccc"
       id="path6754"
       d="M 372.54134,512.51854 L 317.78441,523.15615 C 314.75589,523.69941 314.87021,525.69654 313.90483,528.3795 C 312.93945,531.06247 314.06248,532.43508 316.14561,534.51922 C 318.22874,536.60336 322.24089,537.49608 325.24626,536.85408 L 376.0851,527.79484 L 366.98411,521.33936 L 372.54134,512.51854 z "
       style="color:#000000;fill:#990000;fill-opacity:1;fill-rule:evenodd;stroke:none;stroke-width:14;stroke-linecap:round;stroke-linejoin:miter;marker:none;marker-start:none;marker-mid:none;marker-end:none;stroke-miterlimit:4;stroke-dasharray:none;stroke-dashoffset:0;stroke-opacity:1;visibility:visible;display:inline;overflow:visible" />
    <path
       sodipodi:nodetypes="ccccc"
       id="path4089"
       d="M 222.52183,315.39144 C 228.7126,326.18019 231.79847,337.96892 228.33799,348.75767 C 260.98092,396.21647 372.6452,328.28965 438.34872,349.98983 C 427.55017,344.83186 417.15626,335.93318 412.74214,319.0879 C 354.15714,306.96393 265.18192,374.59169 222.52183,315.39144 z "
       style="color:#000000;fill:#006699;fill-opacity:1;fill-rule:evenodd;stroke:#006699;stroke-width:1.1665765px;stroke-linecap:butt;stroke-linejoin:miter;marker:none;marker-start:none;marker-mid:none;marker-end:none;stroke-miterlimit:4;stroke-dasharray:none;stroke-dashoffset:0;stroke-opacity:1;visibility:visible;display:inline;overflow:visible" />
    <path
       id="path4970"
       d="M 360.53125,265.65625 C 359.18547,265.7262 357.87405,266.06655 356.6875,266.65625 L 298.1875,294.53125 L 294.75,305.1875 L 307.09375,309.1875 L 365.15625,281.53125 C 369.01108,279.78392 371.01422,275.81922 369.96875,272 C 368.92331,268.18078 365.11205,265.53357 360.8125,265.65625 C 360.72252,265.65849 360.62097,265.65159 360.53125,265.65625 z M 290.75,298.0625 L 235.96875,324.15625 C 231.4862,326.29437 229.75777,331.33463 232.09375,335.4375 C 234.42972,339.54036 239.95495,341.13812 244.4375,339 L 299.1875,312.9375 L 290.0625,310 L 287.1875,309.09375 L 288.125,306.21875 L 290.75,298.0625 z "
       style="color:#000000;fill:#990000;fill-opacity:1;fill-rule:evenodd;stroke:none;stroke-width:15;stroke-linecap:round;stroke-linejoin:miter;marker:none;marker-start:none;marker-mid:none;marker-end:none;stroke-miterlimit:4;stroke-dasharray:none;stroke-dashoffset:0;stroke-opacity:1;visibility:visible;display:inline;overflow:visible" />
    <path
       id="path4976"
       d="M 352.90625,303.625 C 351.55851,303.64947 350.24078,303.9507 349.03125,304.5 L 311.65625,321.25 L 318.1875,322.96875 L 321.09375,323.75 L 320.3125,326.65625 L 317.625,336.8125 L 356.96875,319.5625 C 360.81479,317.89853 362.90067,314.05548 362,310.25 C 361.09934,306.44454 357.44111,303.68298 353.1875,303.625 C 353.09749,303.6242 352.9961,303.62337 352.90625,303.625 z M 302.9375,325.15625 L 263.0625,343 C 259.95318,344.20155 257.80767,346.89242 257.5,349.96875 C 257.19234,353.04509 255.71194,356.58297 258.53125,358.28125 C 261.35054,359.97955 264.97228,360.10049 267.9375,358.625 L 311.40625,339.5625 L 310.75,339.375 L 313.75,328.03125 L 302.9375,325.15625 z "
       style="color:#000000;fill:#990000;fill-opacity:1;fill-rule:evenodd;stroke:none;stroke-width:15;stroke-linecap:round;stroke-linejoin:miter;marker:none;marker-start:none;marker-mid:none;marker-end:none;stroke-miterlimit:4;stroke-dasharray:none;stroke-dashoffset:0;stroke-opacity:1;visibility:visible;display:inline;overflow:visible" />
    <path
       id="path4982"
       d="M 378.4375,325.9375 C 378.36831,325.93955 378.28818,325.96526 378.21875,325.96875 C 377.08624,326.02481 375.97079,326.25949 374.9375,326.6875 L 324.75,347.9375 L 327.5,348.8125 L 323.90625,359.96875 L 332.96875,362.90625 L 382.25,342.03125 C 386.35358,340.45556 388.6222,336.40701 387.625,332.4375 C 386.64339,328.52998 382.79639,325.80852 378.4375,325.9375 z M 321,349.53125 L 261.53125,374.6875 C 256.90139,376.53666 254.7922,381.48105 256.8125,385.71875 C 258.8328,389.95646 264.21388,391.88042 268.84375,390.03125 L 324.5,366.46875 L 319.21875,364.78125 L 316.34375,363.84375 L 317.28125,361 L 321,349.53125 z "
       style="color:#000000;fill:#990000;fill-opacity:1;fill-rule:evenodd;stroke:none;stroke-width:15;stroke-linecap:round;stroke-linejoin:miter;marker:none;marker-start:none;marker-mid:none;marker-end:none;stroke-miterlimit:4;stroke-dasharray:none;stroke-dashoffset:0;stroke-opacity:1;visibility:visible;display:inline;overflow:visible" />
    <path
       sodipodi:nodetypes="ccccc"
       id="path4087"
       d="M 246.90905,405.79368 C 255.74284,416.95445 263.99793,432.84737 260.10266,444.00814 C 303.44887,465.27558 384.03889,434.4667 463.59787,420.7972 C 447.3257,422.2868 440.74159,393.51513 455.62433,392.17492 C 398.00269,403.48864 311.01849,453.25687 246.90905,405.79368 z "
       style="color:#000000;fill:#006699;fill-opacity:1;fill-rule:evenodd;stroke:#006699;stroke-width:1.1665765px;stroke-linecap:butt;stroke-linejoin:miter;marker:none;marker-start:none;marker-mid:none;marker-end:none;stroke-miterlimit:4;stroke-dasharray:none;stroke-dashoffset:0;stroke-opacity:1;visibility:visible;display:inline;overflow:visible" />
    <path
       id="path4984"
       d="M 414,368.34375 C 412.39982,368.45717 410.85847,368.97873 409.53125,369.8125 L 358.375,399.25 L 358.65625,399.46875 C 355.5115,403.2976 356.17041,407.17995 358.5625,410.1875 C 360.6182,412.77211 363.90901,414.3791 367.5625,413.6875 L 367.65625,413.65625 L 419.59375,383.75 C 423.0506,381.72148 424.61384,377.84226 423.40625,374.25 C 422.19866,370.65774 418.51103,368.24269 414.40625,368.34375 C 414.2699,368.34782 414.13561,368.33414 414,368.34375 z M 350.71875,403.65625 L 307.71875,428.40625 C 304.78555,429.96595 303.04931,432.86641 303.1875,435.96875 C 303.32569,439.07109 305.31281,441.85152 308.375,443.1875 C 311.43719,444.52346 315.06125,444.19914 317.78125,442.34375 L 359.46875,418.34375 C 357.26329,417.3065 355.31692,415.7897 353.84375,413.9375 C 351.60794,411.12645 350.40236,407.41822 350.71875,403.65625 z "
       style="color:#000000;fill:#339966;fill-opacity:1;fill-rule:nonzero;stroke:none;stroke-width:3.74635673;stroke-linecap:round;stroke-linejoin:round;marker:none;marker-start:none;marker-mid:none;marker-end:none;stroke-miterlimit:4;stroke-dasharray:none;stroke-dashoffset:0;stroke-opacity:1;visibility:visible;display:inline;overflow:visible" />
    <path
       id="path4095"
       d="M 418.03125,334.84375 C 416.47294,334.89748 414.96197,335.31654 413.625,336.0625 L 337.375,376.6875 C 339.42124,377.71601 341.20276,379.18863 342.59375,380.9375 C 344.9016,383.83914 346.138,387.70757 345.71875,391.59375 L 422.84375,350.5 C 426.42211,348.65311 425.36974,347.29331 424.38384,343.64312 C 423.39796,339.99295 422.73134,334.95175 418.625,334.84375 C 418.43277,334.8393 418.22262,334.83715 418.03125,334.84375 z M 330.0625,381.03125 C 329.70527,381.05186 329.3341,381.09126 328.96875,381.15625 L 257.53125,419.21875 C 254.54869,420.65053 258.78348,422.35504 258.75,425.4375 C 258.71656,428.51997 260.51786,431.358 263.46875,432.84375 C 264.85198,433.54018 265.05667,434.14952 265.15625,434.40625 C 265.16258,434.42187 265.18129,434.45622 265.1875,434.46875 C 265.1907,434.47422 265.18413,434.49534 265.1875,434.5 C 265.18925,434.50212 265.21694,434.49809 265.21875,434.5 C 265.22064,434.5017 265.21677,434.52976 265.21875,434.53125 C 265.22095,434.53231 265.24768,434.53041 265.25,434.53125 C 265.25274,434.53142 265.27835,434.53131 265.28125,434.53125 C 265.2847,434.5305 265.30885,434.53224 265.3125,434.53125 C 265.47479,434.47973 265.82257,434.20626 266.75,433.65625 L 338.09375,395.65625 L 337.8125,395.40625 C 340.95725,391.5774 340.29834,387.69505 337.90625,384.6875 C 336.07481,382.38484 333.24506,380.84764 330.0625,381.03125 z "
       style="color:#000000;fill:#339966;fill-opacity:1;fill-rule:nonzero;stroke:none;stroke-width:3.74635673;stroke-linecap:round;stroke-linejoin:round;marker:none;marker-start:none;marker-mid:none;marker-end:none;stroke-miterlimit:4;stroke-dasharray:none;stroke-dashoffset:0;stroke-opacity:1;visibility:visible;display:inline;overflow:visible"
       sodipodi:nodetypes="cccsccssccccsssssssssscccsc" />
    <path
       sodipodi:nodetypes="ccccc"
       id="path4085"
       d="M 209.10886,206.01589 C 216.42502,214.94451 215.73793,226.37312 210.04758,235.30174 C 234.70879,310.92875 332.5474,238.24722 378.60004,280.79305 C 369.38226,276.71399 362.84044,265.53299 360.09026,243.69466 C 344.45952,224.87588 238.15617,284.11515 209.10886,206.01589 z "
       style="fill:#006699;fill-opacity:1;fill-rule:evenodd;stroke:#006699;stroke-width:1.1665765px;stroke-linecap:butt;stroke-linejoin:miter;stroke-opacity:1" />
    <path
       id="path4972"
       d="M 327.75,187.5625 C 327.05581,187.59233 326.38846,187.70221 325.71875,187.875 L 273.90625,200.15625 C 271.26057,203.18069 271.14078,207.08499 272.59375,210.25 C 274.19701,213.74242 277.35118,216.07688 282.1875,215 L 282.28125,215.4375 L 330.28125,204.0625 C 334.75639,203.04783 337.6983,199.12812 337.15625,194.9375 C 336.61418,190.74688 332.76655,187.59263 328.15625,187.5625 C 328.0274,187.56305 327.87855,187.55698 327.75,187.5625 z M 266.3125,201.9375 L 219.625,213 C 216.29768,213.60467 213.62481,215.83682 212.65625,218.8125 C 211.68767,221.78817 212.57672,225.01472 215,227.1875 C 217.4233,229.36027 220.9571,230.13515 224.1875,229.1875 L 271.21875,218.0625 C 269.44957,216.62477 268.05326,214.77207 267.125,212.75 C 265.61636,209.46369 265.26293,205.57967 266.3125,201.9375 z "
       style="color:#000000;fill:#339966;fill-opacity:1;fill-rule:nonzero;stroke:none;stroke-width:3.74635673;stroke-linecap:round;stroke-linejoin:round;marker:none;marker-start:none;marker-mid:none;marker-end:none;stroke-miterlimit:4;stroke-dasharray:none;stroke-dashoffset:0;stroke-opacity:1;visibility:visible;display:inline;overflow:visible" />
    <path
       id="path4980"
       d="M 305.96875,161.875 C 305.89637,161.87739 305.82237,161.90284 305.75,161.90625 C 304.92008,161.94372 304.10087,162.07224 303.3125,162.3125 L 268.40625,172.21875 L 276.65625,177.5625 L 279.1875,179.1875 L 277.5625,181.71875 L 273.34375,188.21875 L 313.65625,176.625 C 318.10611,175.4286 316.62198,171.93483 315.84375,167.75 C 315.07768,163.63055 310.52883,161.72434 305.96875,161.875 z M 260.6875,174.40625 L 224.65625,184.625 C 219.83697,186.01187 217.17227,190.71394 218.6875,195.125 C 220.20273,199.53606 225.33699,202.01189 230.15625,200.625 L 264.5625,190.71875 L 270.875,181 L 260.6875,174.40625 z "
       style="color:#000000;fill:#990000;fill-opacity:1;fill-rule:evenodd;stroke:none;stroke-width:15;stroke-linecap:round;stroke-linejoin:miter;marker:none;marker-start:none;marker-mid:none;marker-end:none;stroke-miterlimit:4;stroke-dasharray:none;stroke-dashoffset:0;stroke-opacity:1;visibility:visible;display:inline;overflow:visible" />
    <path
       id="path4974"
       d="M 320.71875,216.59375 C 320.1556,216.63188 319.57815,216.74231 319.03125,216.875 L 274.625,227.09375 L 283.40625,232.78125 L 285.9375,234.40625 L 284.3125,236.9375 L 280.34375,243.0625 L 323.53125,233.125 C 328.07129,232.1741 331.12093,228.2355 330.59375,224 C 330.06657,219.76451 326.12613,216.58558 321.46875,216.59375 C 321.21159,216.5913 320.97473,216.57642 320.71875,216.59375 z M 266.875,228.875 L 229.40625,237.5 C 224.50281,238.63648 223.38335,242.10564 224.625,246.59375 C 225.86666,251.08185 229.00281,254.88648 233.90625,253.75 L 271.9375,245 L 277.625,236.1875 L 266.71875,229.125 L 266.875,228.875 z "
       style="color:#000000;fill:#990000;fill-opacity:1;fill-rule:evenodd;stroke:none;stroke-width:15;stroke-linecap:round;stroke-linejoin:miter;marker:none;marker-start:none;marker-mid:none;marker-end:none;stroke-miterlimit:4;stroke-dasharray:none;stroke-dashoffset:0;stroke-opacity:1;visibility:visible;display:inline;overflow:visible" />
    <path
       id="path4978"
       d="M 331.75,247.8125 C 331.71549,247.81452 331.69081,247.84137 331.65625,247.84375 C 330.52934,247.937 329.42003,248.19625 328.40625,248.65625 L 281.5625,269 C 283.89622,270.03408 285.92332,271.61946 287.46875,273.5625 C 289.71037,276.38086 290.9413,280.07171 290.625,283.84375 L 342.8125,261.5625 C 343.61766,261.22879 344.0948,260.89434 344.3125,260.53125 C 344.34922,260.46702 344.38421,260.37821 344.40625,260.3125 C 344.41307,260.29054 344.43222,260.24089 344.4375,260.21875 C 344.74012,258.8126 342.0025,257.04511 341.1875,254.125 C 340.09798,250.22128 336.13323,247.55617 331.75,247.8125 z M 271.5625,273.34375 L 234.53125,289.40625 C 231.32117,290.51501 229.04281,293.19207 228.65625,296.3125 C 228.26968,299.43293 229.83015,302.48028 232.6875,304.21875 C 235.54487,305.95721 239.22499,306.06541 242.21875,304.53125 L 283.5,286.90625 C 285.69907,283.44378 284.94347,280.03104 282.78125,277.3125 C 280.38916,274.30495 276.3341,272.62308 271.96875,274.34375 L 271.5625,273.34375 z "
       style="color:#000000;fill:#339966;fill-opacity:1;fill-rule:nonzero;stroke:none;stroke-width:3.74635673;stroke-linecap:round;stroke-linejoin:round;marker:none;marker-start:none;marker-mid:none;marker-end:none;stroke-miterlimit:4;stroke-dasharray:none;stroke-dashoffset:0;stroke-opacity:1;visibility:visible;display:inline;overflow:visible" />
    <path
       sodipodi:nodetypes="cscccccc"
       id="path6756"
       d="M 328.98729,450.33212 C 325.19332,450.48265 321.96416,452.90908 321.0639,456.28586 C 320.16365,459.66265 321.80879,463.17776 325.10057,464.91088 L 370.36935,489.77847 L 382.08665,487.07546 L 379.13351,476.35067 L 333.86473,451.51795 C 332.40664,450.68179 330.70651,450.26844 328.98729,450.33212 z "
       style="color:#000000;fill:#990000;fill-opacity:1;fill-rule:evenodd;stroke:none;stroke-width:14;stroke-linecap:round;stroke-linejoin:miter;marker:none;marker-start:none;marker-mid:none;marker-end:none;stroke-miterlimit:4;stroke-dasharray:none;stroke-dashoffset:0;stroke-opacity:1;visibility:visible;display:inline;overflow:visible" />
    <path
       sodipodi:nodetypes="ccccc"
       id="path4077"
       d="M 288.36732,502.89237 C 299.16025,509.09372 304.74818,522.44126 309.09646,537.49076 C 271.41399,472.23374 439.77641,448.30676 438.34872,348.87375 C 423.88543,345.56724 416.26967,333.90403 411.52278,318.73967 C 428.72558,426.99914 269.19457,441.50814 288.36732,502.89237 z "
       style="fill:#8fbcd2;fill-opacity:1;fill-rule:evenodd;stroke:#006699;stroke-width:3.49972963;stroke-linecap:butt;stroke-linejoin:miter;stroke-miterlimit:4;stroke-dasharray:none;stroke-opacity:1" />
    <path
       sodipodi:nodetypes="ccccc"
       id="path4079"
       d="M 222.52183,317.62359 C 227.70918,327.15442 231.12257,337.49712 229.83799,349.98983 C 227.66639,285.66908 324.09367,263.01727 343.23857,208.24805 C 338.76763,200.8074 334.74346,192.13995 333.48368,175.88181 C 326.42381,238.46729 211.95669,262.69553 222.52183,317.62359 z "
       style="color:#000000;fill:#8fbcd2;fill-opacity:1;fill-rule:evenodd;stroke:#006699;stroke-width:3.49972963;stroke-linecap:butt;stroke-linejoin:miter;marker:none;marker-start:none;marker-mid:none;marker-end:none;stroke-miterlimit:4;stroke-dasharray:none;stroke-dashoffset:0;stroke-opacity:1;visibility:visible;display:inline;overflow:visible" />
    <path
       sodipodi:nodetypes="ccccc"
       id="path4081"
       d="M 210.32822,207.13197 C 213.14601,216.43261 213.99034,225.73326 210.32822,235.03389 C 247.72196,159.89836 308.28355,159.35566 322.50943,117.84581 C 318.35926,111.00253 318.97125,101.97985 321.29007,92.176038 C 297.71576,148.31526 237.56061,143.96509 210.32822,207.13197 z "
       style="color:#000000;fill:#8fbcd2;fill-opacity:1;fill-rule:evenodd;stroke:#006699;stroke-width:3.49972963;stroke-linecap:butt;stroke-linejoin:miter;marker:none;marker-start:none;marker-mid:none;marker-end:none;stroke-miterlimit:4;stroke-dasharray:none;stroke-dashoffset:0;stroke-opacity:1;visibility:visible;display:inline;overflow:visible" />
    <path
       sodipodi:nodetypes="ccsccc"
       id="path4083"
       d="M 246.90905,408.02583 C 263.02181,418.01078 254.19935,429.93476 261.54138,444.85637 C 237.99318,390.16951 344.39194,355.81342 372.65379,308.57247 C 378.28074,299.16677 380.81026,289.2503 378.60004,278.5609 C 367.5155,273.41983 361.82527,254.94249 360.30962,243.96251 C 369.93109,334.85155 239.2637,342.18754 246.90905,408.02583 z "
       style="color:#000000;fill:#8fbcd2;fill-opacity:1;fill-rule:evenodd;stroke:#006699;stroke-width:3.49972963;stroke-linecap:butt;stroke-linejoin:miter;marker:none;marker-start:none;marker-mid:none;marker-end:none;stroke-miterlimit:4;stroke-dasharray:none;stroke-dashoffset:0;stroke-opacity:1;visibility:visible;display:inline;overflow:visible" />
    <path
       sodipodi:nodetypes="cccssccsc"
       id="path5004"
       d="M 431.33516,404.91491 C 427.91235,404.89501 423.5142,409.51052 422.15409,412.3855 L 402.33947,452.63403 C 400.91683,455.19969 401.14984,458.27338 402.94597,460.63462 C 404.74211,462.99585 407.81071,464.2625 410.93328,463.93162 C 414.05587,463.60075 416.72711,461.72587 417.88632,459.05147 L 437.70094,418.80295 C 438.93334,416.39353 438.7416,413.5757 437.19211,411.32486 C 435.64262,409.07402 434.24165,404.93734 431.33516,404.91491 z "
       style="color:#000000;fill:#339966;fill-opacity:1;fill-rule:nonzero;stroke:none;stroke-width:3.74635673;stroke-linecap:round;stroke-linejoin:round;marker:none;marker-start:none;marker-mid:none;marker-end:none;stroke-miterlimit:4;stroke-dasharray:none;stroke-dashoffset:0;stroke-opacity:1;visibility:visible;display:inline;overflow:visible" />
    <path
       sodipodi:nodetypes="cccz"
       id="path11240"
       d="M 434.69607,404.65257 C 425.47348,401.51841 423.3125,410.46875 423.3125,410.46875 C 429.32549,404.13355 439.87695,410.27189 438.3125,417.1875 C 438.3125,417.1875 444.02092,407.82148 434.69607,404.65257 z "
       style="fill:#8fbcd2;fill-opacity:1;fill-rule:evenodd;stroke:none;stroke-width:5;stroke-linecap:butt;stroke-linejoin:miter;stroke-miterlimit:4;stroke-dasharray:none;stroke-opacity:1" />
    <path
       sodipodi:nodetypes="cccscs"
       id="path12988"
       d="M 300.0625,440.21875 C 302.3549,444.71654 305.50621,447.28772 314.93138,447.64645 L 317.59375,443 C 309.09598,442.67657 305.67975,440.25223 304.5,437.9375 C 303.32025,435.62277 304.01417,432.412 305.84375,429.625 C 305.84375,429.625 297.7701,435.72096 300.0625,440.21875 z "
       style="opacity:1;color:#000000;fill:#8fbcd2;fill-opacity:1;fill-rule:evenodd;stroke:none;stroke-width:5;stroke-linecap:butt;stroke-linejoin:miter;marker:none;marker-start:none;marker-mid:none;marker-end:none;stroke-miterlimit:4;stroke-dasharray:none;stroke-dashoffset:0;stroke-opacity:1;visibility:visible;display:inline;overflow:visible" />
    <path
       sodipodi:nodetypes="cssczc"
       id="path12990"
       d="M 376.28125,326.75 C 379.32195,326.42006 383.06496,327.22386 384.9375,329.1875 C 385.87377,330.16932 386.47722,331.40873 386.5625,333.34375 C 386.64778,335.27877 386.14582,337.95879 384.5,341.4375 C 384.5,341.4375 393.37935,335.84434 388.38052,328.17525 C 383.27371,320.3405 376.28125,326.75 376.28125,326.75 z "
       style="opacity:1;color:#000000;fill:#8fbcd2;fill-opacity:1;fill-rule:evenodd;stroke:none;stroke-width:5;stroke-linecap:butt;stroke-linejoin:miter;marker:none;marker-start:none;marker-mid:none;marker-end:none;stroke-miterlimit:4;stroke-dasharray:none;stroke-dashoffset:0;stroke-opacity:1;visibility:visible;display:inline;overflow:visible" />
    <path
       sodipodi:nodetypes="cssscsc"
       id="path12992"
       d="M 329.57414,248.32414 C 329.20851,248.48741 331.14626,248.99038 332.65625,249.5 C 334.16624,250.00962 336.02655,250.9507 337.65625,252.15625 C 339.28595,253.3618 340.70196,254.82601 341.5,256.28125 C 342.29804,257.73649 344.29444,259.07827 343.86152,260.5625 C 343.86152,260.5625 347.51337,254.82269 341.98591,249.63236 C 336.41424,244.40051 329.57414,248.32414 329.57414,248.32414 z "
       style="opacity:1;color:#000000;fill:#8fbcd2;fill-opacity:1;fill-rule:evenodd;stroke:none;stroke-width:5;stroke-linecap:butt;stroke-linejoin:miter;marker:none;marker-start:none;marker-mid:none;marker-end:none;stroke-miterlimit:4;stroke-dasharray:none;stroke-dashoffset:0;stroke-opacity:1;visibility:visible;display:inline;overflow:visible" />
    <path
       sodipodi:nodetypes="cccscs"
       id="path12994"
       d="M 253.75,355.15625 C 254.0949,359.12445 257.43819,361.02921 262.68934,362.66789 L 266.66421,359.33211 C 262.29265,357.96791 259.1378,355.5219 258.5,353.59375 C 257.8622,351.6656 258.304,348.87548 260,345.34375 C 260,345.34375 253.20621,348.89974 253.75,355.15625 z "
       style="opacity:1;color:#000000;fill:#8fbcd2;fill-opacity:1;fill-rule:evenodd;stroke:none;stroke-width:5;stroke-linecap:butt;stroke-linejoin:miter;marker:none;marker-start:none;marker-mid:none;marker-end:none;stroke-miterlimit:4;stroke-dasharray:none;stroke-dashoffset:0;stroke-opacity:1;visibility:visible;display:inline;overflow:visible" />
    <path
       sodipodi:nodetypes="cccc"
       id="path12996"
       d="M 232.6875,336.21875 L 230.51961,340.98836 L 242.71875,339.25 C 237.28681,339.33092 235.20726,338.00791 232.6875,336.21875 z "
       style="opacity:1;color:#000000;fill:#8fbcd2;fill-opacity:1;fill-rule:evenodd;stroke:none;stroke-width:5;stroke-linecap:butt;stroke-linejoin:miter;marker:none;marker-start:none;marker-mid:none;marker-end:none;stroke-miterlimit:4;stroke-dasharray:none;stroke-dashoffset:0;stroke-opacity:1;visibility:visible;display:inline;overflow:visible" />
    <path
       sodipodi:nodetypes="czscz"
       id="path12998"
       d="M 220.90625,248 C 221.84316,254.6701 233.63228,255.69781 231.96875,254.3125 C 230.30522,252.92719 226.19315,249.55095 225.84375,247.25 C 225.49435,244.94905 226.29185,242.11826 227.15625,238.90625 C 227.15625,238.90625 219.96124,241.27226 220.90625,248 z "
       style="opacity:1;color:#000000;fill:#8fbcd2;fill-opacity:1;fill-rule:evenodd;stroke:none;stroke-width:5;stroke-linecap:butt;stroke-linejoin:miter;marker:none;marker-start:none;marker-mid:none;marker-end:none;stroke-miterlimit:4;stroke-dasharray:none;stroke-dashoffset:0;stroke-opacity:1;visibility:visible;display:inline;overflow:visible" />
    <path
       sodipodi:nodetypes="cccc"
       id="path13000"
       d="M 216.375,227.65625 L 214.625,232.34375 L 221.125,229.40625 L 216.375,227.65625 z "
       style="opacity:1;color:#000000;fill:#8fbcd2;fill-opacity:1;fill-rule:evenodd;stroke:none;stroke-width:5;stroke-linecap:butt;stroke-linejoin:miter;marker:none;marker-start:none;marker-mid:none;marker-end:none;stroke-miterlimit:4;stroke-dasharray:none;stroke-dashoffset:0;stroke-opacity:1;visibility:visible;display:inline;overflow:visible" />
    <path
       sodipodi:nodetypes="csczc"
       id="path13002"
       d="M 304.96875,161.75 C 309.98612,161.82889 312.63408,164.21526 314.1875,167.28125 C 315.74092,170.34724 315.73865,174.22427 314.96875,176 C 314.96875,176 322.08074,173.92937 318.65625,165 C 315.18441,155.94718 304.96875,161.75 304.96875,161.75 z "
       style="opacity:1;color:#000000;fill:#8fbcd2;fill-opacity:1;fill-rule:evenodd;stroke:none;stroke-width:5;stroke-linecap:butt;stroke-linejoin:miter;marker:none;marker-start:none;marker-mid:none;marker-end:none;stroke-miterlimit:4;stroke-dasharray:none;stroke-dashoffset:0;stroke-opacity:1;visibility:visible;display:inline;overflow:visible" />
    <path
       sodipodi:nodetypes="ccscz"
       id="path13004"
       d="M 310.3125,530.15625 C 310.98755,537.36416 320.75,537.58027 320.75,537.58027 C 316.70519,535.48651 315.52198,531.48619 315.28125,529.53125 C 315.04052,527.57631 315.9159,524.13074 317.1875,522.77329 C 317.1875,522.77329 309.63358,522.90704 310.3125,530.15625 z "
       style="opacity:1;color:#000000;fill:#8fbcd2;fill-opacity:1;fill-rule:evenodd;stroke:none;stroke-width:5;stroke-linecap:butt;stroke-linejoin:miter;marker:none;marker-start:none;marker-mid:none;marker-end:none;stroke-miterlimit:4;stroke-dasharray:none;stroke-dashoffset:0;stroke-opacity:1;visibility:visible;display:inline;overflow:visible" />
  </g>
</svg>
