<?xml version="1.0" encoding="UTF-8" standalone="no"?>
<!-- Created with Inkscape (http://www.inkscape.org/) -->

<svg
   xmlns:dc="http://purl.org/dc/elements/1.1/"
   xmlns:cc="http://creativecommons.org/ns#"
   xmlns:rdf="http://www.w3.org/1999/02/22-rdf-syntax-ns#"
   xmlns:svg="http://www.w3.org/2000/svg"
   xmlns="http://www.w3.org/2000/svg"
   xmlns:sodipodi="http://sodipodi.sourceforge.net/DTD/sodipodi-0.dtd"
   xmlns:inkscape="http://www.inkscape.org/namespaces/inkscape"
   version="1.0"
   width="900"
   height="900"
   id="svg2848"
   sodipodi:version="0.32"
   inkscape:version="0.46+devel"
   sodipodi:docname="logo.svg"
   inkscape:output_extension="org.inkscape.output.svg.inkscape"
   inkscape:export-filename="/home/fale/Scrivania/logo.png"
   inkscape:export-xdpi="120"
   inkscape:export-ydpi="120">
  <metadata
     id="metadata1970">
    <rdf:RDF>
      <cc:Work
         rdf:about="">
        <dc:format>image/svg+xml</dc:format>
        <dc:type
           rdf:resource="http://purl.org/dc/dcmitype/StillImage" />
        <dc:title></dc:title>
      </cc:Work>
    </rdf:RDF>
  </metadata>
  <sodipodi:namedview
     inkscape:window-height="743"
     inkscape:window-width="1280"
     inkscape:pageshadow="2"
     inkscape:pageopacity="0.0"
     guidetolerance="10.0"
     gridtolerance="10.0"
     objecttolerance="10.0"
     borderopacity="1.0"
     bordercolor="#666666"
     pagecolor="#ffffff"
     id="base"
     height="900px"
     width="900px"
     inkscape:zoom="0.51444444"
     inkscape:cx="320.51132"
     inkscape:cy="486.14167"
     inkscape:window-x="-5"
     inkscape:window-y="-3"
     inkscape:current-layer="layer1"
     showgrid="true"
     showguides="false">
    <inkscape:grid
       type="xygrid"
       id="grid3244" />
  </sodipodi:namedview>
  <defs
     id="defs2850">
    <inkscape:perspective
       sodipodi:type="inkscape:persp3d"
       inkscape:vp_x="0 : 450 : 1"
       inkscape:vp_y="0 : 1000 : 0"
       inkscape:vp_z="900 : 450 : 1"
       inkscape:persp3d-origin="450 : 300 : 1"
       id="perspective11" />
    <inkscape:perspective
       id="perspective3031"
       inkscape:persp3d-origin="0.5 : 0.33333333 : 1"
       inkscape:vp_z="1 : 0.5 : 1"
       inkscape:vp_y="0 : 1000 : 0"
       inkscape:vp_x="0 : 0.5 : 1"
       sodipodi:type="inkscape:persp3d" />
  </defs>
  <g
     transform="matrix(2,0,0,2,-61.4375,-67.125)"
     id="layer1">
    <path
       d="M 255.71875,33.5625 C 178.93962,33.5625 111.10867,72.086118 70.5,130.84375 L 114,155.96875 C 145.8111,112.11504 197.43839,83.5625 255.71875,83.5625 C 313.99911,83.562502 365.6264,112.11504 397.4375,155.96875 L 440.9375,130.84375 C 400.32883,72.086118 332.49788,33.5625 255.71875,33.5625 z"
       style="opacity:1;fill:#990000;fill-opacity:1;stroke:none;stroke-width:10;stroke-linecap:round;stroke-linejoin:round;stroke-miterlimit:4;stroke-dasharray:none;stroke-opacity:1"
       id="path4005" />
    <path
       d="M 46.8125,174.9375 C 36.442946,200.79582 30.71875,229.01254 30.71875,258.5625 C 30.71875,374.31432 118.2675,469.74106 230.71875,482.1875 L 230.71875,431.75 C 145.95412,419.60155 80.71875,346.67019 80.71875,258.5625 C 80.718751,238.11672 84.234053,218.49436 90.6875,200.25 L 46.8125,174.9375 z"
       style="opacity:1;fill:#006699;fill-opacity:1;stroke:none;stroke-width:10;stroke-linecap:round;stroke-linejoin:round;stroke-miterlimit:4;stroke-dasharray:none;stroke-opacity:1"
       id="path4003" />
    <path
       d="M 464.625,174.9375 L 420.75,200.25 C 427.20345,218.49436 430.71875,238.11672 430.71875,258.5625 C 430.71875,346.67018 365.48339,419.60155 280.71875,431.75 L 280.71875,482.1875 C 393.16999,469.74106 480.71874,374.31432 480.71875,258.5625 C 480.71875,229.01254 474.99455,200.79582 464.625,174.9375 z"
       style="opacity:1;fill:#006699;fill-opacity:1;stroke:none;stroke-width:10;stroke-linecap:round;stroke-linejoin:round;stroke-miterlimit:4;stroke-dasharray:none;stroke-opacity:1"
       id="path3918" />
    <g
       id="g13026"
       transform="matrix(0.98608705,0,0,0.69676445,-55.480789,29.337514)">
      <path
         sodipodi:nodetypes="cscccccc"
         id="path6752"
         d="m 300.02746,487.09291 c -4.412,0.22583 -7.9064,3.49619 -8.05493,7.5385 -0.14853,4.04232 3.0979,7.52018 7.48336,8.01682 l 70.26567,8.68448 c -6.76111,-5.16186 -8.85165,-10.32372 2.28631,-15.48557 l -70.26568,-8.68448 c -0.56757,-0.0759 -1.14204,-0.0993 -1.71473,-0.0697 l 0,0 z"
         style="color:#000000;fill:#339966;fill-opacity:1;fill-rule:nonzero;stroke:none;stroke-width:3.74635673;marker:none;visibility:visible;display:inline;overflow:visible" />
      <path
         sodipodi:nodetypes="ccccc"
         id="path4093"
         d="m 341.99022,208.42525 c -3.41817,-10.25559 -9.83751,-18.9475 -8.12219,-32.96203 -28.92903,-35.87463 -61.38437,-26.8708 -89.11329,-35.80476 5.0209,1.8703 0.68339,23.28159 -10.8955,19.44445 31.33053,11.85132 71.90147,3.6623 108.13098,49.32234 z"
         style="color:#000000;fill:#006699;fill-opacity:1;fill-rule:evenodd;stroke:#006699;stroke-width:1.1665765px;stroke-linecap:butt;stroke-linejoin:miter;stroke-miterlimit:4;stroke-opacity:1;stroke-dasharray:none;stroke-dashoffset:0;marker:none;visibility:visible;display:inline;overflow:visible" />
      <path
         sodipodi:nodetypes="ccccc"
         id="path4091"
         d="m 307.48678,537.14253 c 17.07105,14.98953 35.14211,10.09233 52.21316,14.29919 -12.14255,-10.20172 -34.9905,-16.72898 -23.16786,-35.15642 -16.6646,8.33751 -33.3292,-4.20929 -49.9938,-14.509 11.9966,3.7832 20.95656,23.37359 20.9485,35.36623 z"
         style="color:#000000;fill:#006699;fill-opacity:1;fill-rule:evenodd;stroke:#006699;stroke-width:1.1665765px;stroke-linecap:butt;stroke-linejoin:miter;stroke-miterlimit:4;stroke-opacity:1;stroke-dasharray:none;stroke-dashoffset:0;marker:none;visibility:visible;display:inline;overflow:visible" />
      <path
         sodipodi:nodetypes="ccsscccc"
         id="path6754"
         d="m 372.54134,512.51854 -54.75693,10.63761 c -3.02852,0.54326 -2.9142,2.54039 -3.87958,5.22335 -0.96538,2.68297 0.15765,4.05558 2.24078,6.13972 2.08313,2.08414 6.09528,2.97686 9.10065,2.33486 l 50.83884,-9.05924 -9.10099,-6.45548 5.55723,-8.82082 z"
         style="color:#000000;fill:#990000;fill-opacity:1;fill-rule:evenodd;stroke:none;stroke-width:14;marker:none;visibility:visible;display:inline;overflow:visible" />
      <path
         sodipodi:nodetypes="ccccc"
         id="path4089"
         d="m 222.52183,315.39144 c 6.19077,10.78875 9.27664,22.57748 5.81616,33.36623 32.64293,47.4588 144.30721,-20.46802 210.01073,1.23216 -10.79855,-5.15797 -21.19246,-14.05665 -25.60658,-30.90193 -58.585,-12.12397 -147.56022,55.50379 -190.22031,-3.69646 z"
         style="color:#000000;fill:#006699;fill-opacity:1;fill-rule:evenodd;stroke:#006699;stroke-width:1.1665765px;stroke-linecap:butt;stroke-linejoin:miter;stroke-miterlimit:4;stroke-opacity:1;stroke-dasharray:none;stroke-dashoffset:0;marker:none;visibility:visible;display:inline;overflow:visible" />
      <path
         id="path4970"
         d="m 360.53125,265.65625 c -1.34578,0.07 -2.6572,0.4103 -3.84375,1 l -58.5,27.875 -3.4375,10.65625 12.34375,4 58.0625,-27.65625 c 3.85483,-1.74733 5.85797,-5.71203 4.8125,-9.53125 -1.04544,-3.81922 -4.8567,-6.46643 -9.15625,-6.34375 -0.09,0.002 -0.19153,-0.005 -0.28125,0 z M 290.75,298.0625 235.96875,324.15625 c -4.48255,2.13812 -6.21098,7.17838 -3.875,11.28125 2.33597,4.10286 7.8612,5.70062 12.34375,3.5625 l 54.75,-26.0625 -9.125,-2.9375 -2.875,-0.90625 0.9375,-2.875 2.625,-8.15625 z"
         style="color:#000000;fill:#990000;fill-opacity:1;fill-rule:evenodd;stroke:none;stroke-width:15;marker:none;visibility:visible;display:inline;overflow:visible" />
      <path
         id="path4976"
         d="m 352.90625,303.625 c -1.34774,0.0245 -2.66547,0.3257 -3.875,0.875 l -37.375,16.75 6.53125,1.71875 2.90625,0.78125 -0.78125,2.90625 -2.6875,10.15625 39.34375,-17.25 c 3.84604,-1.66397 5.93192,-5.50702 5.03125,-9.3125 -0.90066,-3.80546 -4.55889,-6.56702 -8.8125,-6.625 -0.09,-8e-4 -0.1914,-0.002 -0.28125,0 z M 302.9375,325.15625 263.0625,343 c -3.10932,1.20155 -5.25483,3.89242 -5.5625,6.96875 -0.30766,3.07634 -1.78806,6.61422 1.03125,8.3125 2.81929,1.6983 6.44103,1.81924 9.40625,0.34375 l 43.46875,-19.0625 -0.65625,-0.1875 3,-11.34375 -10.8125,-2.875 z"
         style="color:#000000;fill:#990000;fill-opacity:1;fill-rule:evenodd;stroke:none;stroke-width:15;marker:none;visibility:visible;display:inline;overflow:visible" />
      <path
         id="path4982"
         d="m 378.4375,325.9375 c -0.0692,0.002 -0.14932,0.0278 -0.21875,0.0313 -1.13251,0.0561 -2.24796,0.29074 -3.28125,0.71875 l -50.1875,21.25 2.75,0.875 -3.59375,11.15625 9.0625,2.9375 49.28125,-20.875 c 4.10358,-1.57569 6.3722,-5.62424 5.375,-9.59375 -0.98161,-3.90752 -4.82861,-6.62898 -9.1875,-6.5 z M 321,349.53125 261.53125,374.6875 c -4.62986,1.84916 -6.73905,6.79355 -4.71875,11.03125 2.0203,4.23771 7.40138,6.16167 12.03125,4.3125 l 55.65625,-23.5625 -5.28125,-1.6875 -2.875,-0.9375 L 317.28125,361 321,349.53125 z"
         style="color:#000000;fill:#990000;fill-opacity:1;fill-rule:evenodd;stroke:none;stroke-width:15;marker:none;visibility:visible;display:inline;overflow:visible" />
      <path
         sodipodi:nodetypes="ccccc"
         id="path4087"
         d="m 246.90905,405.79368 c 8.83379,11.16077 17.08888,27.05369 13.19361,38.21446 43.34621,21.26744 123.93623,-9.54144 203.49521,-23.21094 -16.27217,1.4896 -22.85628,-27.28207 -7.97354,-28.62228 -57.62164,11.31372 -144.60584,61.08195 -208.71528,13.61876 z"
         style="color:#000000;fill:#006699;fill-opacity:1;fill-rule:evenodd;stroke:#006699;stroke-width:1.1665765px;stroke-linecap:butt;stroke-linejoin:miter;stroke-miterlimit:4;stroke-opacity:1;stroke-dasharray:none;stroke-dashoffset:0;marker:none;visibility:visible;display:inline;overflow:visible" />
      <path
         id="path4984"
         d="m 414,368.34375 c -1.60018,0.11342 -3.14153,0.63498 -4.46875,1.46875 L 358.375,399.25 l 0.28125,0.21875 c -3.14475,3.82885 -2.48584,7.7112 -0.0937,10.71875 2.0557,2.58461 5.34651,4.1916 9,3.5 l 0.0937,-0.0313 51.9375,-29.90625 c 3.45685,-2.02852 5.02009,-5.90774 3.8125,-9.5 -1.20759,-3.59226 -4.89522,-6.00731 -9,-5.90625 -0.13635,0.004 -0.27064,-0.01 -0.40625,0 z m -63.28125,35.3125 -43,24.75 c -2.9332,1.5597 -4.66944,4.46016 -4.53125,7.5625 0.13819,3.10234 2.12531,5.88277 5.1875,7.21875 3.06219,1.33596 6.68625,1.01164 9.40625,-0.84375 l 41.6875,-24 c -2.20546,-1.03725 -4.15183,-2.55405 -5.625,-4.40625 -2.23581,-2.81105 -3.44139,-6.51928 -3.125,-10.28125 z"
         style="color:#000000;fill:#339966;fill-opacity:1;fill-rule:nonzero;stroke:none;stroke-width:3.74635673;marker:none;visibility:visible;display:inline;overflow:visible" />
      <path
         id="path4095"
         d="m 418.03125,334.84375 c -1.55831,0.0537 -3.06928,0.47279 -4.40625,1.21875 l -76.25,40.625 c 2.04624,1.02851 3.82776,2.50113 5.21875,4.25 2.30785,2.90164 3.54425,6.77007 3.125,10.65625 L 422.84375,350.5 c 3.57836,-1.84689 2.52599,-3.20669 1.54009,-6.85688 -0.98588,-3.65017 -1.6525,-8.69137 -5.75884,-8.79937 -0.19223,-0.004 -0.40238,-0.007 -0.59375,0 z m -87.96875,46.1875 c -0.35723,0.0206 -0.7284,0.06 -1.09375,0.125 l -71.4375,38.0625 c -2.98256,1.43178 1.25223,3.13629 1.21875,6.21875 -0.0334,3.08247 1.76786,5.9205 4.71875,7.40625 1.38323,0.69643 1.58792,1.30577 1.6875,1.5625 0.006,0.0156 0.025,0.05 0.0313,0.0625 0.003,0.005 -0.003,0.0266 0,0.0313 0.002,0.002 0.0294,-0.002 0.0313,0 0.002,0.002 -0.002,0.0298 0,0.0313 0.002,0.001 0.0289,-8.4e-4 0.0313,0 0.003,1.7e-4 0.0283,6e-5 0.0313,0 0.003,-7.5e-4 0.0276,9.9e-4 0.0313,0 0.16229,-0.0515 0.51007,-0.32499 1.4375,-0.875 l 71.34375,-38 -0.28125,-0.25 c 3.14475,-3.82885 2.48584,-7.7112 0.0937,-10.71875 -1.83144,-2.30266 -4.66119,-3.83986 -7.84375,-3.65625 z"
         style="color:#000000;fill:#339966;fill-opacity:1;fill-rule:nonzero;stroke:none;stroke-width:3.74635673;marker:none;visibility:visible;display:inline;overflow:visible"
         sodipodi:nodetypes="cccsccssccccsssssssssscccsc" />
      <path
         sodipodi:nodetypes="ccccc"
         id="path4085"
         d="m 209.10886,206.01589 c 7.31616,8.92862 6.62907,20.35723 0.93872,29.28585 24.66121,75.62701 122.49982,2.94548 168.55246,45.49131 -9.21778,-4.07906 -15.7596,-15.26006 -18.50978,-37.09839 -15.63074,-18.81878 -121.93409,40.42049 -150.9814,-37.67877 z"
         style="fill:#006699;fill-opacity:1;fill-rule:evenodd;stroke:#006699;stroke-width:1.1665765px;stroke-linecap:butt;stroke-linejoin:miter;stroke-opacity:1" />
      <path
         id="path4972"
         d="m 327.75,187.5625 c -0.69419,0.0298 -1.36154,0.13971 -2.03125,0.3125 l -51.8125,12.28125 c -2.64568,3.02444 -2.76547,6.92874 -1.3125,10.09375 1.60326,3.49242 4.75743,5.82688 9.59375,4.75 l 0.0937,0.4375 48,-11.375 c 4.47514,-1.01467 7.41705,-4.93438 6.875,-9.125 -0.54207,-4.19062 -4.3897,-7.34487 -9,-7.375 -0.12885,5.5e-4 -0.2777,-0.006 -0.40625,0 z M 266.3125,201.9375 219.625,213 c -3.32732,0.60467 -6.00019,2.83682 -6.96875,5.8125 -0.96858,2.97567 -0.0795,6.20222 2.34375,8.375 2.4233,2.17277 5.9571,2.94765 9.1875,2 l 47.03125,-11.125 c -1.76918,-1.43773 -3.16549,-3.29043 -4.09375,-5.3125 -1.50864,-3.28631 -1.86207,-7.17033 -0.8125,-10.8125 z"
         style="color:#000000;fill:#339966;fill-opacity:1;fill-rule:nonzero;stroke:none;stroke-width:3.74635673;marker:none;visibility:visible;display:inline;overflow:visible" />
      <path
         id="path4980"
         d="m 305.96875,161.875 c -0.0724,0.002 -0.14638,0.0278 -0.21875,0.0313 -0.82992,0.0375 -1.64913,0.16599 -2.4375,0.40625 l -34.90625,9.90625 8.25,5.34375 2.53125,1.625 -1.625,2.53125 -4.21875,6.5 40.3125,-11.59375 c 4.44986,-1.1964 2.96573,-4.69017 2.1875,-8.875 -0.76607,-4.11945 -5.31492,-6.02566 -9.875,-5.875 z M 260.6875,174.40625 224.65625,184.625 c -4.81928,1.38687 -7.48398,6.08894 -5.96875,10.5 1.51523,4.41106 6.64949,6.88689 11.46875,5.5 L 264.5625,190.71875 270.875,181 260.6875,174.40625 z"
         style="color:#000000;fill:#990000;fill-opacity:1;fill-rule:evenodd;stroke:none;stroke-width:15;marker:none;visibility:visible;display:inline;overflow:visible" />
      <path
         id="path4974"
         d="m 320.71875,216.59375 c -0.56315,0.0381 -1.1406,0.14856 -1.6875,0.28125 l -44.40625,10.21875 8.78125,5.6875 2.53125,1.625 -1.625,2.53125 -3.96875,6.125 43.1875,-9.9375 c 4.54004,-0.9509 7.58968,-4.8895 7.0625,-9.125 -0.52718,-4.23549 -4.46762,-7.41442 -9.125,-7.40625 -0.25716,-0.002 -0.49402,-0.0173 -0.75,0 z M 266.875,228.875 229.40625,237.5 c -4.90344,1.13648 -6.0229,4.60564 -4.78125,9.09375 1.24166,4.4881 4.37781,8.29273 9.28125,7.15625 l 38.03125,-8.75 5.6875,-8.8125 -10.90625,-7.0625 0.15625,-0.25 z"
         style="color:#000000;fill:#990000;fill-opacity:1;fill-rule:evenodd;stroke:none;stroke-width:15;marker:none;visibility:visible;display:inline;overflow:visible" />
      <path
         id="path4978"
         d="m 331.75,247.8125 c -0.0345,0.002 -0.0592,0.0289 -0.0937,0.0313 -1.12691,0.0933 -2.23622,0.3525 -3.25,0.8125 L 281.5625,269 c 2.33372,1.03408 4.36082,2.61946 5.90625,4.5625 2.24162,2.81836 3.47255,6.50921 3.15625,10.28125 l 52.1875,-22.28125 c 0.80516,-0.33371 1.2823,-0.66816 1.5,-1.03125 0.0367,-0.0642 0.0717,-0.15304 0.0937,-0.21875 0.007,-0.022 0.026,-0.0716 0.0313,-0.0937 0.30262,-1.40615 -2.435,-3.17364 -3.25,-6.09375 -1.08952,-3.90372 -5.05427,-6.56883 -9.4375,-6.3125 z m -60.1875,25.53125 -37.03125,16.0625 c -3.21008,1.10876 -5.48844,3.78582 -5.875,6.90625 -0.38657,3.12043 1.1739,6.16778 4.03125,7.90625 2.85737,1.73846 6.53749,1.84666 9.53125,0.3125 L 283.5,286.90625 c 2.19907,-3.46247 1.44347,-6.87521 -0.71875,-9.59375 -2.39209,-3.00755 -6.44715,-4.68942 -10.8125,-2.96875 l -0.40625,-1 z"
         style="color:#000000;fill:#339966;fill-opacity:1;fill-rule:nonzero;stroke:none;stroke-width:3.74635673;marker:none;visibility:visible;display:inline;overflow:visible" />
      <path
         sodipodi:nodetypes="cscccccc"
         id="path6756"
         d="m 328.98729,450.33212 c -3.79397,0.15053 -7.02313,2.57696 -7.92339,5.95374 -0.90025,3.37679 0.74489,6.8919 4.03667,8.62502 l 45.26878,24.86759 11.7173,-2.70301 -2.95314,-10.72479 -45.26878,-24.83272 c -1.45809,-0.83616 -3.15822,-1.24951 -4.87744,-1.18583 z"
         style="color:#000000;fill:#990000;fill-opacity:1;fill-rule:evenodd;stroke:none;stroke-width:14;marker:none;visibility:visible;display:inline;overflow:visible" />
      <path
         sodipodi:nodetypes="ccccc"
         id="path4077"
         d="m 288.36732,502.89237 c 10.79293,6.20135 16.38086,19.54889 20.72914,34.59839 -37.68247,-65.25702 130.67995,-89.184 129.25226,-188.61701 -14.46329,-3.30651 -22.07905,-14.96972 -26.82594,-30.13408 17.2028,108.25947 -142.32821,122.76847 -123.15546,184.1527 z"
         style="fill:#8fbcd2;fill-opacity:1;fill-rule:evenodd;stroke:#006699;stroke-width:3.49972963;stroke-linecap:butt;stroke-linejoin:miter;stroke-miterlimit:4;stroke-opacity:1;stroke-dasharray:none" />
      <path
         sodipodi:nodetypes="ccccc"
         id="path4079"
         d="m 222.52183,317.62359 c 5.18735,9.53083 8.60074,19.87353 7.31616,32.36624 -2.1716,-64.32075 94.25568,-86.97256 113.40058,-141.74178 -4.47094,-7.44065 -8.49511,-16.1081 -9.75489,-32.36624 -7.05987,62.58548 -121.52699,86.81372 -110.96185,141.74178 z"
         style="color:#000000;fill:#8fbcd2;fill-opacity:1;fill-rule:evenodd;stroke:#006699;stroke-width:3.49972963;stroke-linecap:butt;stroke-linejoin:miter;stroke-miterlimit:4;stroke-opacity:1;stroke-dasharray:none;stroke-dashoffset:0;marker:none;visibility:visible;display:inline;overflow:visible" />
      <path
         sodipodi:nodetypes="ccccc"
         id="path4081"
         d="m 210.32822,207.13197 c 2.81779,9.30064 3.66212,18.60129 0,27.90192 37.39374,-75.13553 97.95533,-75.67823 112.18121,-117.18808 -4.15017,-6.84328 -3.53818,-15.86596 -1.21936,-25.669772 -23.57431,56.139222 -83.72946,51.789052 -110.96185,114.955932 z"
         style="color:#000000;fill:#8fbcd2;fill-opacity:1;fill-rule:evenodd;stroke:#006699;stroke-width:3.49972963;stroke-linecap:butt;stroke-linejoin:miter;stroke-miterlimit:4;stroke-opacity:1;stroke-dasharray:none;stroke-dashoffset:0;marker:none;visibility:visible;display:inline;overflow:visible" />
      <path
         sodipodi:nodetypes="ccsccc"
         id="path4083"
         d="m 246.90905,408.02583 c 16.11276,9.98495 7.2903,21.90893 14.63233,36.83054 -23.5482,-54.68686 82.85056,-89.04295 111.11241,-136.2839 5.62695,-9.4057 8.15647,-19.32217 5.94625,-30.01157 -11.08454,-5.14107 -16.77477,-23.61841 -18.29042,-34.59839 9.62147,90.88904 -121.04592,98.22503 -113.40057,164.06332 z"
         style="color:#000000;fill:#8fbcd2;fill-opacity:1;fill-rule:evenodd;stroke:#006699;stroke-width:3.49972963;stroke-linecap:butt;stroke-linejoin:miter;stroke-miterlimit:4;stroke-opacity:1;stroke-dasharray:none;stroke-dashoffset:0;marker:none;visibility:visible;display:inline;overflow:visible" />
      <path
         sodipodi:nodetypes="cccssccsc"
         id="path5004"
         d="m 431.33516,404.91491 c -3.42281,-0.0199 -7.82096,4.59561 -9.18107,7.47059 l -19.81462,40.24853 c -1.42264,2.56566 -1.18963,5.63935 0.6065,8.00059 1.79614,2.36123 4.86474,3.62788 7.98731,3.297 3.12259,-0.33087 5.79383,-2.20575 6.95304,-4.88015 l 19.81462,-40.24852 c 1.2324,-2.40942 1.04066,-5.22725 -0.50883,-7.47809 -1.54949,-2.25084 -2.95046,-6.38752 -5.85695,-6.40995 z"
         style="color:#000000;fill:#339966;fill-opacity:1;fill-rule:nonzero;stroke:none;stroke-width:3.74635673;marker:none;visibility:visible;display:inline;overflow:visible" />
      <path
         sodipodi:nodetypes="cccz"
         id="path11240"
         d="m 434.69607,404.65257 c -9.22259,-3.13416 -11.38357,5.81618 -11.38357,5.81618 6.01299,-6.3352 16.56445,-0.19686 15,6.71875 0,0 5.70842,-9.36602 -3.61643,-12.53493 z"
         style="fill:#8fbcd2;fill-opacity:1;fill-rule:evenodd;stroke:none" />
      <path
         sodipodi:nodetypes="cccscs"
         id="path12988"
         d="m 300.0625,440.21875 c 2.2924,4.49779 5.44371,7.06897 14.86888,7.4277 L 317.59375,443 c -8.49777,-0.32343 -11.914,-2.74777 -13.09375,-5.0625 -1.17975,-2.31473 -0.48583,-5.5255 1.34375,-8.3125 0,0 -8.07365,6.09596 -5.78125,10.59375 z"
         style="color:#000000;fill:#8fbcd2;fill-opacity:1;fill-rule:evenodd;stroke:none;stroke-width:5;marker:none;visibility:visible;display:inline;overflow:visible" />
      <path
         sodipodi:nodetypes="cssczc"
         id="path12990"
         d="m 376.28125,326.75 c 3.0407,-0.32994 6.78371,0.47386 8.65625,2.4375 0.93627,0.98182 1.53972,2.22123 1.625,4.15625 0.0853,1.93502 -0.41668,4.61504 -2.0625,8.09375 0,0 8.87935,-5.59316 3.88052,-13.26225 C 383.27371,320.3405 376.28125,326.75 376.28125,326.75 z"
         style="color:#000000;fill:#8fbcd2;fill-opacity:1;fill-rule:evenodd;stroke:none;stroke-width:5;marker:none;visibility:visible;display:inline;overflow:visible" />
      <path
         sodipodi:nodetypes="cssscsc"
         id="path12992"
         d="m 329.57414,248.32414 c -0.36563,0.16327 1.57212,0.66624 3.08211,1.17586 1.50999,0.50962 3.3703,1.4507 5,2.65625 1.6297,1.20555 3.04571,2.66976 3.84375,4.125 0.79804,1.45524 2.79444,2.79702 2.36152,4.28125 0,0 3.65185,-5.73981 -1.87561,-10.93014 -5.57167,-5.23185 -12.41177,-1.30822 -12.41177,-1.30822 z"
         style="color:#000000;fill:#8fbcd2;fill-opacity:1;fill-rule:evenodd;stroke:none;stroke-width:5;marker:none;visibility:visible;display:inline;overflow:visible" />
      <path
         sodipodi:nodetypes="cccscs"
         id="path12994"
         d="m 253.75,355.15625 c 0.3449,3.9682 3.68819,5.87296 8.93934,7.51164 l 3.97487,-3.33578 c -4.37156,-1.3642 -7.52641,-3.81021 -8.16421,-5.73836 -0.6378,-1.92815 -0.196,-4.71827 1.5,-8.25 0,0 -6.79379,3.55599 -6.25,9.8125 z"
         style="color:#000000;fill:#8fbcd2;fill-opacity:1;fill-rule:evenodd;stroke:none;stroke-width:5;marker:none;visibility:visible;display:inline;overflow:visible" />
      <path
         sodipodi:nodetypes="cccc"
         id="path12996"
         d="m 232.6875,336.21875 -2.16789,4.76961 12.19914,-1.73836 c -5.43194,0.0809 -7.51149,-1.24209 -10.03125,-3.03125 z"
         style="color:#000000;fill:#8fbcd2;fill-opacity:1;fill-rule:evenodd;stroke:none;stroke-width:5;marker:none;visibility:visible;display:inline;overflow:visible" />
      <path
         sodipodi:nodetypes="czscz"
         id="path12998"
         d="m 220.90625,248 c 0.93691,6.6701 12.72603,7.69781 11.0625,6.3125 -1.66353,-1.38531 -5.7756,-4.76155 -6.125,-7.0625 -0.3494,-2.30095 0.4481,-5.13174 1.3125,-8.34375 0,0 -7.19501,2.36601 -6.25,9.09375 z"
         style="color:#000000;fill:#8fbcd2;fill-opacity:1;fill-rule:evenodd;stroke:none;stroke-width:5;marker:none;visibility:visible;display:inline;overflow:visible" />
      <path
         sodipodi:nodetypes="cccc"
         id="path13000"
         d="m 216.375,227.65625 -1.75,4.6875 6.5,-2.9375 -4.75,-1.75 z"
         style="color:#000000;fill:#8fbcd2;fill-opacity:1;fill-rule:evenodd;stroke:none;stroke-width:5;marker:none;visibility:visible;display:inline;overflow:visible" />
      <path
         sodipodi:nodetypes="csczc"
         id="path13002"
         d="m 304.96875,161.75 c 5.01737,0.0789 7.66533,2.46526 9.21875,5.53125 1.55342,3.06599 1.55115,6.94302 0.78125,8.71875 0,0 7.11199,-2.07063 3.6875,-11 -3.47184,-9.05282 -13.6875,-3.25 -13.6875,-3.25 z"
         style="color:#000000;fill:#8fbcd2;fill-opacity:1;fill-rule:evenodd;stroke:none;stroke-width:5;marker:none;visibility:visible;display:inline;overflow:visible" />
      <path
         sodipodi:nodetypes="ccscz"
         id="path13004"
         d="m 310.3125,530.15625 c 0.67505,7.20791 10.4375,7.42402 10.4375,7.42402 -4.04481,-2.09376 -5.22802,-6.09408 -5.46875,-8.04902 -0.24073,-1.95494 0.63465,-5.40051 1.90625,-6.75796 0,0 -7.55392,0.13375 -6.875,7.38296 z"
         style="color:#000000;fill:#8fbcd2;fill-opacity:1;fill-rule:evenodd;stroke:none;stroke-width:5;marker:none;visibility:visible;display:inline;overflow:visible" />
    </g>
  </g>
</svg>
