<?xml version="1.0" encoding="UTF-8" standalone="no"?>
<svg xmlns:svg="http://www.w3.org/2000/svg" xmlns="http://www.w3.org/2000/svg" version="1.0" width="180" height="185" id="svg2">
<path d="M 164,82 C 170,130 140,174 96,180 C 51,186 10,152 4,105 C -2.79,56.9 27.6,13 72,6.7 C 116,0.5 157,34 164,82 z " style="fill-opacity: 0.2; fill-rule: evenodd;" id="shadow"/>
<path d="M 176,80 C 183,128 152,172 108,178 C 64,184.5 22.6,150.7 16,102 C 9,54.9 39.6,11 83.8,4.7 C 128,-1.5 169,32 176,80 z" style="fill: rgb(238, 102, 0); fill-rule: evenodd;" id="orange"/>
<path d="M 160,82.5 C 165.4,120.8 141,156 106,161 C 70,166 37,138.9 31.9,100.5 C 26.6,62 50.9,27 86,22 C 122,17 155,44 160,82.5 L 160,82.5 z" style="fill: rgb(255, 238, 187); fill-rule: evenodd;" id="beige"/>
<path d="M 66,137 C 70,123 81,110.5 82.4,96 C 74,82 60,71 53,55 C 54,49 67,52.6 70.7,53.4 C 81.5,57 87,68.5 93.6,76.9 C 101,67 104,44 115,39 C 120,40 136,42 132,49 C 123.5,63 115.7,77.5 111,93 C 119,106 131.5,116 139.5,130 C 140,137 126,135 121,134 C 113,128 107.8,119 100,113 C 92.9,119 93,141 84,142.6 C 81,143 67,137.5 65.9,137" style="fill: rgb(238, 102, 0);" id="X"/>
</svg>