<?xml version="1.0" encoding="UTF-8" standalone="no"?>
<svg xmlns:svg="http://www.w3.org/2000/svg" xmlns="http://www.w3.org/2000/svg" version="1.0" width="180" height="185" id="svg2">
<path d="M 164,82 C 171,130 140,174 96,180 C 52,186.5 10.6,153 4,105 C -2.8,56.9 27.6,13 71.8,6.7 C 116,0.5 157,34 164,82 z" style="fill-opacity: 0.2;" id="shadow"/>
<path d="M 176,80 C 182.8,128 152,172 108,178 C 63.9,184.5 22.6,150.7 15.9,102 C 9,54.9 39.6,11 84,4.7 C 128,-1.5 169,32 176,80 z" style="fill: rgb(0, 102, 34);" id="blue"/>
<path d="M 160,82.5 C 165,121 141,155.9 105.7,160.9 C 70,165.9 37,138.9 31.9,100.5 C 26.6,62 50.9,27 86,22 C 121,17 154,44 160,82 L 160,82.5 z " style="fill: rgb(221, 238, 221); fill-rule: evenodd;" id="lightblue"/>
<path d="M 87.6,153 C 83,148 65,129 45,121 C 43.8,118 40,110 39.6,106 C 39.8,101.4 71.5,116.8 78.7,121.5 C 77.9,75.9 115,36 123,34.9 C 126,34 145,53.6 144,52 C 123,66 88,103.6 87.6,153 z" style="fill: rgb(0, 102, 34);" id="tick"/>
</svg>