<?xml version="1.0" encoding="UTF-8" standalone="no"?>
<!-- Created with Inkscape (http://www.inkscape.org/) -->
<svg xmlns:svg="http://www.w3.org/2000/svg" xmlns="http://www.w3.org/2000/svg" version="1.0" width="180" height="185" id="svg2">
  <defs id="defs4"/>
  <path d="M 164.07127,82.212593 C 170.78505,130.12831 140.37851,174.02521 96.156375,180.25907 C 51.93422,186.49294 10.6425,152.70312 3.9287283,104.78742 C -2.7850377,56.871695 27.62149,12.974795 71.84363,6.740931 C 116.06577,0.50706102 157.3575,34.296885 164.07127,82.212593 z " style="fill: black; fill-opacity: 0.196078; fill-rule: evenodd;" id="path1367"/>
  <g transform="matrix(1.60143, -0.225748, 0.243128, 1.73518, 3.77234, 16.0284)" id="layer1">
    <path d="M 49.357798,24.6789 C 49.357798,38.055338 38.390828,48.899084 24.862385,48.899084 C 11.333942,48.899084 0.36697197,38.055338 0.36697197,24.6789 C 0.36697197,11.302462 11.333942,0.45871599 24.862385,0.45871599 C 38.390828,0.45871599 49.357798,11.302462 49.357798,24.6789 z " transform="matrix(2.0412, 0, 0, 2.06439, -0.749062, -0.946976)" style="fill: rgb(150, 150, 150); fill-opacity: 1; fill-rule: evenodd;" id="path1306"/>
    <path d="M -6.880734,14.449541 C -6.880734,16.501608 -8.6058753,18.165137 -10.733945,18.165137 C -12.862015,18.165137 -14.587156,16.501608 -14.587156,14.449541 C -14.587156,12.397474 -12.862015,10.733945 -10.733945,10.733945 C -8.6058753,10.733945 -6.880734,12.397474 -6.880734,14.449541 L -6.880734,14.449541 z " transform="matrix(10.3809, 0, 0, 10.7654, 161.429, -105.555)" style="fill: rgb(220, 220, 220); fill-opacity: 1; fill-rule: evenodd;" id="path1308"/>
    <path d="M 76.167914,50.065864 C 76.210347,64.244007 64.528992,75.708184 50.076884,75.671822 C 35.624775,75.635455 23.874629,64.112323 23.832194,49.93418 C 23.789762,35.756035 35.471115,24.291859 49.923222,24.328224 C 64.375331,24.364586 76.125482,35.887721 76.167914,50.065864 z " style="fill: none; fill-opacity: 1; fill-rule: evenodd; stroke: rgb(102, 102, 102); stroke-width: 5.94055; stroke-miterlimit: 4; stroke-dasharray: none; stroke-opacity: 1;" id="path1875"/>
    <rect width="3.9301689" height="25.546097" x="48.608906" y="-73.300636" transform="matrix(0, 1, -1, 0, 0, 0)" style="fill: rgb(102, 102, 102); fill-opacity: 1; fill-rule: evenodd;" id="rect4988"/>
    <rect width="4.4914646" height="24.872961" x="47.636833" y="25.588078" transform="matrix(1, 0.000769435, 0.00090312, 1, 0, 0)" style="fill: rgb(102, 102, 102); fill-opacity: 1; fill-rule: evenodd;" id="rect2821"/>
  </g>
</svg>