<?xml version="1.0" encoding="UTF-8" standalone="no"?>
<svg xmlns:svg="http://www.w3.org/2000/svg" xmlns="http://www.w3.org/2000/svg" version="1.0" width="180" height="185" id="svg2">
<path d="M 164,82 C 170.8,130 140,174 96.16,180.26 C 51.9,186.5 10.6,152.7 3.9,104.8 C -2.79,56.87 27.6,12.98 71.8,6.74 C 116.07,0.51 157.4,34.3 164.1,82.2 z" style="fill-opacity: 0.2;" id="1"/>
<path d="M 176,80.2 C 182.79,128.13 152.4,172 108.1,178.26 C 63.9,184.5 22.6,150.7 15.9,102.79 C 9.2,54.88 39.62,10.97 83.84,4.74 C 128.07,-1.49 169.4,32.3 176.1,80.2 z" style="fill: rgb(0, 34, 187);" id="2"/>
<path d="M 160,82.5 C 165,120.8 141,155.9 105.7,160.9 C 70.3,165.9 37.3,138.9 31.9,100.5 C 26.6,62 50.9,27 86.3,22 C 121.7,17.1 154.69,44.14 160,82.5 L 160,82.5 z" style="fill: rgb(238, 238, 255);" id="3"/>
<path d="M 63.97,142.36 C 59.9,142.2 57,139 56.7,135 C 56.7,131.9 53.76,121.7 59.8,116.99 L 76,103 C 97,88.6 82,58 56.7,75.4 C 53.6,77.5 43,82.6 42.47,73.5 C 42,69.8 46,66.1 53.2,62.5 C 67.99,54 83.2,55.8 93,68.7 C 111.7,92.2 92.7,106.76 73.3,121.9 C 68.198,125.88 71.3,132.67 69.24,139.5 C 67.6,141.4 65.9,142.4 63.97,142.4 L 63.97,142.4 z M 61,166.5 C 58.97,166.5 57.1,165.8 55.4,164.45 C 49.7,159 54.56,148.36 61.95,147.6 C 72,148 70,165.6 61,166.5 L 61,166.5 z" transform="matrix(1, -0.27, 0.27, 1, 0, 0)" style="fill: rgb(0, 34, 187);" id="4"/>
</svg>